<?xml version="1.0" encoding="utf-8"?>
<!-- Generator: Adobe Illustrator 25.2.3, SVG Export Plug-In . SVG Version: 6.00 Build 0)  -->
<svg version="1.1" id="roe_x5F_logo" xmlns="http://www.w3.org/2000/svg" xmlns:xlink="http://www.w3.org/1999/xlink" x="0px"
	 y="0px" viewBox="0 0 266.4 266.4" style="enable-background:new 0 0 266.4 266.4;" xml:space="preserve">
<style type="text/css">
	.st0{fill:#FF671D;}
</style>
<circle class="st0" cx="66.7" cy="124.4" r="4.4"/>
<circle class="st0" cx="67.4" cy="98.6" r="6.2"/>
<circle class="st0" cx="33.3" cy="67.1" r="6.4"/>
<circle class="st0" cx="17.9" cy="87.4" r="5.8"/>
<circle class="st0" cx="68.6" cy="142.4" r="3.4"/>
<circle class="st0" cx="72.2" cy="155.8" r="4.2"/>
<circle class="st0" cx="64" cy="161.9" r="3.5"/>
<circle class="st0" cx="45.3" cy="100.3" r="4.4"/>
<circle class="st0" cx="18.1" cy="100.7" r="6.9"/>
<circle class="st0" cx="29.9" cy="92.4" r="6.5"/>
<circle class="st0" cx="15.9" cy="115.1" r="6.8"/>
<circle class="st0" cx="9.7" cy="136.7" r="6.1"/>
<circle class="st0" cx="20.1" cy="139.2" r="3.5"/>
<circle class="st0" cx="21.4" cy="128.2" r="6.7"/>
<circle class="st0" cx="26.2" cy="136.8" r="2.1"/>
<circle class="st0" cx="14.2" cy="163.8" r="7.3"/>
<circle class="st0" cx="6.5" cy="146.3" r="2.7"/>
<circle class="st0" cx="7.6" cy="154.7" r="2.8"/>
<circle class="st0" cx="10.5" cy="125.9" r="3.8"/>
<circle class="st0" cx="91.6" cy="157.7" r="3"/>
<circle class="st0" cx="76.1" cy="168.2" r="1.9"/>
<circle class="st0" cx="70.4" cy="163.4" r="2.1"/>
<circle class="st0" cx="72.4" cy="147.9" r="2"/>
<circle class="st0" cx="55.3" cy="138.3" r="1.4"/>
<circle class="st0" cx="93.7" cy="165.8" r="1.8"/>
<circle class="st0" cx="65.3" cy="156.1" r="1.8"/>
<circle class="st0" cx="31.2" cy="157.7" r="6.1"/>
<circle class="st0" cx="28.8" cy="145.5" r="5.6"/>
<circle class="st0" cx="38.4" cy="140.1" r="4.6"/>
<circle class="st0" cx="82.4" cy="102.1" r="2.7"/>
<circle class="st0" cx="78.4" cy="148.9" r="2.8"/>
<circle class="st0" cx="59.4" cy="144.2" r="5.3"/>
<circle class="st0" cx="91.7" cy="174.6" r="5.5"/>
<ellipse class="st0" cx="15.9" cy="149" rx="6" ry="5.9"/>
<circle class="st0" cx="78.4" cy="203.4" r="3.3"/>
<circle class="st0" cx="121.1" cy="217.1" r="5.8"/>
<circle class="st0" cx="134.6" cy="200.5" r="6.2"/>
<circle class="st0" cx="160.5" cy="214.7" r="4.3"/>
<circle class="st0" cx="192" cy="241.4" r="6.5"/>
<circle class="st0" cx="220.7" cy="220.3" r="6.7"/>
<circle class="st0" cx="182.3" cy="200.7" r="4.4"/>
<circle class="st0" cx="244.8" cy="163.1" r="6.6"/>
<circle class="st0" cx="247.6" cy="138.8" r="2.1"/>
<circle class="st0" cx="220.8" cy="158.3" r="5.1"/>
<circle class="st0" cx="228.4" cy="105.6" r="5.1"/>
<circle class="st0" cx="219.6" cy="102.8" r="3.5"/>
<circle class="st0" cx="224.6" cy="95.5" r="3.5"/>
<circle class="st0" cx="231.1" cy="91.1" r="3.8"/>
<circle class="st0" cx="225.9" cy="64.4" r="6"/>
<circle class="st0" cx="176.6" cy="40.8" r="6.6"/>
<circle class="st0" cx="165.2" cy="51.2" r="5.8"/>
<circle class="st0" cx="149.2" cy="64.1" r="5.8"/>
<circle class="st0" cx="134.6" cy="34.9" r="6.2"/>
<circle class="st0" cx="127.2" cy="13.2" r="6.2"/>
<circle class="st0" cx="140.7" cy="13.7" r="6.2"/>
<circle class="st0" cx="154.5" cy="11.5" r="6.5"/>
<circle class="st0" cx="118.1" cy="47.1" r="6.2"/>
<circle class="st0" cx="98.2" cy="29.4" r="5.7"/>
<circle class="st0" cx="166.3" cy="19.6" r="4.6"/>
<circle class="st0" cx="244.5" cy="125.6" r="6.1"/>
<circle class="st0" cx="250.2" cy="107.5" r="4.7"/>
<circle class="st0" cx="257.3" cy="115.1" r="4.7"/>
<circle class="st0" cx="240" cy="88" r="5.3"/>
<circle class="st0" cx="255.9" cy="160.9" r="4.1"/>
<circle class="st0" cx="248.2" cy="133.5" r="1.7"/>
<circle class="st0" cx="251.1" cy="151.4" r="5.8"/>
<circle class="st0" cx="227.1" cy="147.1" r="3.8"/>
<circle class="st0" cx="249.1" cy="116.8" r="3.1"/>
<circle class="st0" cx="258" cy="105.6" r="2.4"/>
<circle class="st0" cx="242.3" cy="114.6" r="3.1"/>
<circle class="st0" cx="259.1" cy="124.9" r="4.1"/>
<circle class="st0" cx="209.1" cy="70.2" r="2.9"/>
<circle class="st0" cx="207.5" cy="77.8" r="3.5"/>
<circle class="st0" cx="197.6" cy="44.3" r="2.8"/>
<circle class="st0" cx="222.4" cy="55" r="2.9"/>
<circle class="st0" cx="230.2" cy="53.5" r="4.4"/>
<circle class="st0" cx="222.8" cy="44" r="3.7"/>
<circle class="st0" cx="183.5" cy="58.5" r="3.5"/>
<circle class="st0" cx="156.2" cy="56.5" r="3.4"/>
<circle class="st0" cx="176.1" cy="55.6" r="3.8"/>
<circle class="st0" cx="155.2" cy="47.5" r="3.8"/>
<circle class="st0" cx="157.2" cy="39.4" r="4"/>
<circle class="st0" cx="166.3" cy="35.2" r="2.6"/>
<circle class="st0" cx="190" cy="24.9" r="5.2"/>
<circle class="st0" cx="182.2" cy="51.4" r="2.5"/>
<circle class="st0" cx="165.2" cy="41.7" r="2.9"/>
<circle class="st0" cx="142.5" cy="46.6" r="2.4"/>
<circle class="st0" cx="141.2" cy="59.5" r="2.4"/>
<circle class="st0" cx="136.7" cy="43.9" r="2.5"/>
<circle class="st0" cx="125.3" cy="35.5" r="2.4"/>
<circle class="st0" cx="118.9" cy="19.1" r="3.5"/>
<circle class="st0" cx="116.1" cy="26.5" r="2.8"/>
<circle class="st0" cx="108.6" cy="29.5" r="3.8"/>
<circle class="st0" cx="99.8" cy="20.6" r="2.5"/>
<circle class="st0" cx="107.3" cy="8.2" r="2.5"/>
<circle class="st0" cx="99.1" cy="11.3" r="3.8"/>
<circle class="st0" cx="93.6" cy="38.6" r="3.3"/>
<circle class="st0" cx="90.2" cy="49.9" r="1.8"/>
<circle class="st0" cx="80.2" cy="46.3" r="2.5"/>
<circle class="st0" cx="80.5" cy="16.2" r="1.9"/>
<circle class="st0" cx="108.9" cy="37.6" r="2"/>
<circle class="st0" cx="108.3" cy="44.8" r="2.9"/>
<circle class="st0" cx="108.1" cy="52.5" r="2.7"/>
<circle class="st0" cx="115.7" cy="8.7" r="4.2"/>
<circle class="st0" cx="121.8" cy="5.7" r="2"/>
<circle class="st0" cx="127.2" cy="4.8" r="1.7"/>
<circle class="st0" cx="148.7" cy="47.1" r="1.3"/>
<circle class="st0" cx="134" cy="22.5" r="4.1"/>
<circle class="st0" cx="174.4" cy="13.9" r="3.9"/>
<circle class="st0" cx="165.5" cy="10.6" r="3.4"/>
<circle class="st0" cx="184.6" cy="32.9" r="3.7"/>
<circle class="st0" cx="194.3" cy="33.2" r="3.5"/>
<circle class="st0" cx="203.3" cy="64.3" r="4.5"/>
<circle class="st0" cx="204.6" cy="35.3" r="5.7"/>
<circle class="st0" cx="192.5" cy="61.5" r="5"/>
<circle class="st0" cx="191.4" cy="51.3" r="4.7"/>
<circle class="st0" cx="146.9" cy="39.3" r="5.4"/>
<circle class="st0" cx="147" cy="53.5" r="4.2"/>
<circle class="st0" cx="135.6" cy="52.8" r="5.7"/>
<circle class="st0" cx="124.8" cy="27.2" r="4.9"/>
<circle class="st0" cx="133.4" cy="65.1" r="5.9"/>
<circle class="st0" cx="98.7" cy="72.2" r="5.9"/>
<circle class="st0" cx="98.3" cy="48.3" r="5.9"/>
<circle class="st0" cx="71.8" cy="50" r="5.7"/>
<circle class="st0" cx="63.6" cy="73.8" r="6.6"/>
<circle class="st0" cx="64.2" cy="38.2" r="6.8"/>
<circle class="st0" cx="52" cy="44.3" r="5.7"/>
<circle class="st0" cx="40.8" cy="55.2" r="6.5"/>
<circle class="st0" cx="100.4" cy="89.7" r="2.5"/>
<circle class="st0" cx="103.9" cy="112.9" r="6"/>
<circle class="st0" cx="75.5" cy="101.6" r="1.9"/>
<circle class="st0" cx="95.1" cy="116.2" r="3"/>
<circle class="st0" cx="90.9" cy="94.6" r="6.9"/>
<circle class="st0" cx="82.9" cy="82.5" r="6.9"/>
<circle class="st0" cx="87.1" cy="44" r="3.7"/>
<circle class="st0" cx="76.5" cy="40.1" r="4.2"/>
<circle class="st0" cx="72.2" cy="58.5" r="1.9"/>
<circle class="st0" cx="64" cy="59.9" r="5.4"/>
<circle class="st0" cx="95" cy="82.6" r="4.6"/>
<circle class="st0" cx="119.4" cy="85.2" r="1.7"/>
<circle class="st0" cx="112.3" cy="106.4" r="4"/>
<circle class="st0" cx="97" cy="104.8" r="3.1"/>
<circle class="st0" cx="92.5" cy="110" r="2.7"/>
<circle class="st0" cx="97.8" cy="126.2" r="6"/>
<circle class="st0" cx="60.1" cy="132.5" r="4.9"/>
<ellipse class="st0" cx="172" cy="151.5" rx="7.6" ry="7.3"/>
<circle class="st0" cx="170.5" cy="133.9" r="3.7"/>
<circle class="st0" cx="152.9" cy="102.5" r="5.6"/>
<circle class="st0" cx="175.3" cy="115.7" r="1.7"/>
<circle class="st0" cx="194.6" cy="147.3" r="4.2"/>
<circle class="st0" cx="183" cy="116.8" r="3"/>
<circle class="st0" cx="187" cy="109.1" r="4.4"/>
<circle class="st0" cx="178.1" cy="108.8" r="3.9"/>
<circle class="st0" cx="171.3" cy="110.9" r="2.4"/>
<circle class="st0" cx="170" cy="100.5" r="6.7"/>
<circle class="st0" cx="150.7" cy="177.7" r="3.1"/>
<circle class="st0" cx="89.9" cy="135.2" r="4.9"/>
<circle class="st0" cx="104.4" cy="173" r="2.8"/>
<ellipse class="st0" cx="100.2" cy="179.5" rx="3.3" ry="3.4"/>
<ellipse class="st0" cx="99.2" cy="169.3" rx="2.2" ry="2.1"/>
<circle class="st0" cx="100.3" cy="152.2" r="2.8"/>
<circle class="st0" cx="78.2" cy="138.7" r="6.2"/>
<circle class="st0" cx="100.2" cy="160.9" r="5.4"/>
<circle class="st0" cx="49.8" cy="52.8" r="1.8"/>
<circle class="st0" cx="56.4" cy="53.5" r="3.5"/>
<circle class="st0" cx="53.8" cy="34.4" r="3.5"/>
<circle class="st0" cx="42.2" cy="44.6" r="3.3"/>
<circle class="st0" cx="54.7" cy="65.6" r="4.5"/>
<circle class="st0" cx="83.3" cy="54.1" r="5.3"/>
<circle class="st0" cx="86.5" cy="29.4" r="4.6"/>
<circle class="st0" cx="89.7" cy="17.6" r="6.6"/>
<circle class="st0" cx="75.2" cy="23.6" r="5.9"/>
<circle class="st0" cx="157.4" cy="28.6" r="5.7"/>
<circle class="st0" cx="144.7" cy="26.5" r="5.7"/>
<circle class="st0" cx="189.8" cy="40.9" r="4.7"/>
<circle class="st0" cx="212.5" cy="84.9" r="3.4"/>
<circle class="st0" cx="216.8" cy="93.5" r="3.9"/>
<circle class="st0" cx="214.3" cy="64.8" r="4.1"/>
<circle class="st0" cx="214.3" cy="55.5" r="4.1"/>
<circle class="st0" cx="212.9" cy="44.4" r="5.1"/>
<circle class="st0" cx="235.8" cy="72.9" r="4.1"/>
<circle class="st0" cx="237.4" cy="63.9" r="4.6"/>
<circle class="st0" cx="244.4" cy="73.9" r="4"/>
<circle class="st0" cx="244.4" cy="98.4" r="4.9"/>
<circle class="st0" cx="211.4" cy="122.9" r="5.5"/>
<circle class="st0" cx="219" cy="121.2" r="2"/>
<circle class="st0" cx="234.8" cy="113.4" r="3.6"/>
<circle class="st0" cx="236.1" cy="101.2" r="3.2"/>
<circle class="st0" cx="241.8" cy="107.4" r="2.5"/>
<circle class="st0" cx="236.6" cy="107.4" r="1.8"/>
<circle class="st0" cx="219.2" cy="49.7" r="2.3"/>
<circle class="st0" cx="218.9" cy="38.5" r="2.3"/>
<circle class="st0" cx="214" cy="35.3" r="2.8"/>
<circle class="st0" cx="173.8" cy="49.6" r="1.7"/>
<circle class="st0" cx="162.2" cy="59.8" r="1.5"/>
<circle class="st0" cx="178.6" cy="32.1" r="1.5"/>
<circle class="st0" cx="173.6" cy="31.2" r="2.7"/>
<circle class="st0" cx="185.3" cy="17.2" r="3"/>
<circle class="st0" cx="170.7" cy="9.8" r="1.1"/>
<circle class="st0" cx="84" cy="37.3" r="2.5"/>
<circle class="st0" cx="64.4" cy="27" r="3.6"/>
<circle class="st0" cx="72.9" cy="32.7" r="2.5"/>
<circle class="st0" cx="62.3" cy="49" r="2.9"/>
<circle class="st0" cx="30.8" cy="57.6" r="2.9"/>
<circle class="st0" cx="78.9" cy="33.2" r="1.9"/>
<circle class="st0" cx="167.4" cy="27.8" r="3.1"/>
<circle class="st0" cx="151.9" cy="20.6" r="2.4"/>
<circle class="st0" cx="140.3" cy="5.1" r="2.1"/>
<circle class="st0" cx="146.6" cy="6.2" r="2.4"/>
<circle class="st0" cx="134" cy="5.8" r="2.8"/>
<circle class="st0" cx="184.7" cy="46.7" r="2.1"/>
<circle class="st0" cx="232.1" cy="83.4" r="3.6"/>
<circle class="st0" cx="243.6" cy="80.5" r="1.7"/>
<circle class="st0" cx="238" cy="79.9" r="2.7"/>
<circle class="st0" cx="214.4" cy="130.6" r="2.2"/>
<circle class="st0" cx="220.8" cy="145.6" r="2.3"/>
<circle class="st0" cx="227.6" cy="153.7" r="2.3"/>
<circle class="st0" cx="197.4" cy="156.2" r="3.8"/>
<circle class="st0" cx="256.8" cy="135.8" r="6.5"/>
<circle class="st0" cx="220.8" cy="186.7" r="6.7"/>
<circle class="st0" cx="207.7" cy="213.9" r="6.7"/>
<circle class="st0" cx="182.5" cy="217.9" r="6.7"/>
<circle class="st0" cx="171.7" cy="235.1" r="5.7"/>
<circle class="st0" cx="183.5" cy="230.6" r="5.6"/>
<circle class="st0" cx="222.2" cy="128" r="5.1"/>
<circle class="st0" cx="204.9" cy="149.4" r="6"/>
<circle class="st0" cx="216.8" cy="74.7" r="5.1"/>
<circle class="st0" cx="222.6" cy="85.4" r="5.6"/>
<circle class="st0" cx="203.2" cy="51.7" r="5.6"/>
<circle class="st0" cx="178" cy="23.2" r="5.6"/>
<circle class="st0" cx="196.1" cy="129.3" r="3.9"/>
<circle class="st0" cx="236.9" cy="185.7" r="6.7"/>
<circle class="st0" cx="202.2" cy="189.5" r="4.2"/>
<circle class="st0" cx="202.1" cy="224.7" r="4.8"/>
<circle class="st0" cx="105.3" cy="200.2" r="6"/>
<circle class="st0" cx="25.5" cy="192.7" r="6.9"/>
<circle class="st0" cx="89.3" cy="147.2" r="7"/>
<circle class="st0" cx="79.7" cy="174.8" r="5.1"/>
<circle class="st0" cx="39.4" cy="162.3" r="2.4"/>
<circle class="st0" cx="39.2" cy="149.5" r="3.7"/>
<circle class="st0" cx="39.9" cy="156.8" r="2.2"/>
<circle class="st0" cx="20.4" cy="172.7" r="2.7"/>
<circle class="st0" cx="12.8" cy="174.6" r="2.9"/>
<circle class="st0" cx="28.4" cy="181.9" r="3.7"/>
<circle class="st0" cx="18.4" cy="181.6" r="5.3"/>
<circle class="st0" cx="38" cy="189.6" r="4.8"/>
<circle class="st0" cx="73.7" cy="220.2" r="3.7"/>
<circle class="st0" cx="52.5" cy="216.8" r="5.8"/>
<circle class="st0" cx="75.9" cy="194" r="5.3"/>
<circle class="st0" cx="86.1" cy="217.6" r="6.2"/>
<circle class="st0" cx="50.4" cy="193.4" r="6.1"/>
<circle class="st0" cx="36.3" cy="200.6" r="4.7"/>
<circle class="st0" cx="51.3" cy="181.3" r="4.4"/>
<circle class="st0" cx="59.2" cy="186.6" r="4.2"/>
<circle class="st0" cx="69.7" cy="185.8" r="4.2"/>
<circle class="st0" cx="42.2" cy="209.6" r="4.2"/>
<circle class="st0" cx="41.6" cy="218.9" r="4.1"/>
<circle class="st0" cx="44.4" cy="201.6" r="2.2"/>
<circle class="st0" cx="51.2" cy="205.3" r="4.4"/>
<circle class="st0" cx="57.3" cy="162.2" r="2.3"/>
<circle class="st0" cx="67.4" cy="204.7" r="6.1"/>
<circle class="st0" cx="64.5" cy="193.8" r="3.9"/>
<circle class="st0" cx="72.7" cy="178.9" r="2.3"/>
<circle class="st0" cx="76" cy="162.6" r="2.7"/>
<circle class="st0" cx="35.5" cy="216.1" r="1.9"/>
<circle class="st0" cx="46.5" cy="225.5" r="3.4"/>
<circle class="st0" cx="64.3" cy="180.2" r="2.7"/>
<circle class="st0" cx="95.6" cy="204.4" r="3.4"/>
<ellipse class="st0" cx="120" cy="258.4" rx="4" ry="4.2"/>
<circle class="st0" cx="148.9" cy="258.8" r="3.5"/>
<circle class="st0" cx="175.8" cy="253.4" r="2.7"/>
<circle class="st0" cx="58.6" cy="209.3" r="2.6"/>
<circle class="st0" cx="74.3" cy="228" r="3.7"/>
<circle class="st0" cx="74.1" cy="245.1" r="3.5"/>
<circle class="st0" cx="108.6" cy="217.7" r="5.7"/>
<circle class="st0" cx="115.2" cy="206.9" r="4.9"/>
<circle class="st0" cx="140.9" cy="210.6" r="4.5"/>
<circle class="st0" cx="157" cy="234" r="6.6"/>
<circle class="st0" cx="165.7" cy="252.1" r="6.6"/>
<circle class="st0" cx="178.6" cy="245.5" r="4.5"/>
<circle class="st0" cx="153.4" cy="206" r="6.2"/>
<circle class="st0" cx="172.5" cy="204.1" r="5.3"/>
<circle class="st0" cx="173.9" cy="191.3" r="7.1"/>
<circle class="st0" cx="146.2" cy="196" r="5"/>
<circle class="st0" cx="130.6" cy="230.4" r="4.9"/>
<circle class="st0" cx="120.8" cy="234.5" r="4.3"/>
<circle class="st0" cx="154.4" cy="251.5" r="3.2"/>
<circle class="st0" cx="106.7" cy="230.3" r="5.4"/>
<circle class="st0" cx="92.6" cy="229.3" r="5.3"/>
<circle class="st0" cx="80.8" cy="237" r="6.5"/>
<circle class="st0" cx="67.1" cy="237" r="6.5"/>
<circle class="st0" cx="115.6" cy="247.5" r="4.7"/>
<circle class="st0" cx="130.9" cy="257.2" r="6"/>
<circle class="st0" cx="145.1" cy="241" r="3.9"/>
<circle class="st0" cx="58.6" cy="200.3" r="2.8"/>
<circle class="st0" cx="76.3" cy="212" r="3.9"/>
<circle class="st0" cx="93.8" cy="211.4" r="2.2"/>
<circle class="st0" cx="97.4" cy="218.5" r="3.8"/>
<circle class="st0" cx="101.1" cy="210.4" r="2.7"/>
<circle class="st0" cx="129" cy="222.2" r="2.6"/>
<circle class="st0" cx="156.4" cy="194.3" r="3.3"/>
<circle class="st0" cx="170.5" cy="214.8" r="4.9"/>
<circle class="st0" cx="188.5" cy="207.8" r="4.3"/>
<circle class="st0" cx="196.8" cy="184.5" r="2.4"/>
<circle class="st0" cx="184.7" cy="191.2" r="2.9"/>
<circle class="st0" cx="174.9" cy="225.2" r="2.8"/>
<circle class="st0" cx="186" cy="249.4" r="2.6"/>
<circle class="st0" cx="170.8" cy="244" r="2"/>
<circle class="st0" cx="182.8" cy="239.3" r="2.5"/>
<circle class="st0" cx="163.7" cy="206.7" r="2.8"/>
<circle class="st0" cx="93.6" cy="195.3" r="4.2"/>
<circle class="st0" cx="86.7" cy="206.5" r="4.4"/>
<circle class="st0" cx="85.1" cy="197.9" r="2.8"/>
<circle class="st0" cx="99.6" cy="225" r="1.8"/>
<circle class="st0" cx="140.7" cy="260.3" r="2.8"/>
<circle class="st0" cx="132" cy="248.3" r="1.8"/>
<circle class="st0" cx="129.4" cy="238" r="1.3"/>
<circle class="st0" cx="139.4" cy="254.4" r="1.8"/>
<circle class="st0" cx="145.2" cy="250" r="4.5"/>
<circle class="st0" cx="79.2" cy="224" r="1.7"/>
<circle class="st0" cx="58.3" cy="237.5" r="1.7"/>
<circle class="st0" cx="115.8" cy="240.4" r="1.5"/>
<circle class="st0" cx="115.8" cy="226.9" r="2.9"/>
<circle class="st0" cx="158.5" cy="244.6" r="2.6"/>
<circle class="st0" cx="137.5" cy="248.1" r="2.6"/>
<circle class="st0" cx="181" cy="252.6" r="1.6"/>
<circle class="st0" cx="166.1" cy="224.2" r="4.7"/>
<circle class="st0" cx="156.9" cy="223.4" r="3.2"/>
<circle class="st0" cx="153.5" cy="217.2" r="2.2"/>
<circle class="st0" cx="164.5" cy="241.7" r="2.4"/>
<circle class="st0" cx="137.9" cy="226.2" r="2"/>
<circle class="st0" cx="108" cy="240.2" r="3.8"/>
<circle class="st0" cx="106.9" cy="208.8" r="1.7"/>
<circle class="st0" cx="55.3" cy="229.8" r="5.9"/>
<circle class="st0" cx="95.1" cy="253.8" r="3"/>
<circle class="st0" cx="125.5" cy="244.1" r="4.8"/>
<circle class="st0" cx="111.4" cy="257.6" r="3.6"/>
<circle class="st0" cx="113.1" cy="236.1" r="1.8"/>
<circle class="st0" cx="122.5" cy="251.5" r="2.2"/>
<circle class="st0" cx="146.8" cy="223.4" r="5.5"/>
<circle class="st0" cx="152" cy="244.2" r="2.6"/>
<circle class="st0" cx="114.3" cy="198.2" r="2.5"/>
<circle class="st0" cx="99.4" cy="235.9" r="2.8"/>
<circle class="st0" cx="101.7" cy="241.4" r="1.9"/>
<circle class="st0" cx="99.9" cy="257.4" r="1.6"/>
<circle class="st0" cx="88.6" cy="252.7" r="2.7"/>
<circle class="st0" cx="123" cy="226.2" r="2.5"/>
<circle class="st0" cx="124.8" cy="207.8" r="3.6"/>
<circle class="st0" cx="143.8" cy="203.8" r="1.8"/>
<circle class="st0" cx="161.4" cy="199.9" r="2.4"/>
<circle class="st0" cx="122.1" cy="199.2" r="4.3"/>
<circle class="st0" cx="132" cy="211.6" r="3.8"/>
<circle class="st0" cx="147.8" cy="214.1" r="2.4"/>
<circle class="st0" cx="136.2" cy="219.4" r="3.7"/>
<circle class="st0" cx="140.8" cy="232.7" r="4.4"/>
<circle class="st0" cx="104.7" cy="250" r="6"/>
<circle class="st0" cx="92.9" cy="244" r="6.4"/>
<circle class="st0" cx="83.3" cy="227.2" r="2.8"/>
<circle class="st0" cx="82.1" cy="248" r="4"/>
<circle class="st0" cx="65.7" cy="225.6" r="4.2"/>
<circle class="st0" cx="42.9" cy="181.7" r="3.1"/>
<circle class="st0" cx="135.7" cy="240.7" r="4.1"/>
<circle class="st0" cx="148.1" cy="232.7" r="1.9"/>
<circle class="st0" cx="158.6" cy="258.5" r="2.2"/>
<circle class="st0" cx="194.6" cy="231" r="3.6"/>
<circle class="st0" cx="191.6" cy="224.4" r="2.5"/>
<circle class="st0" cx="217.8" cy="229.4" r="2.1"/>
<circle class="st0" cx="199.5" cy="198.2" r="4.4"/>
<circle class="st0" cx="198" cy="206.9" r="3.2"/>
<circle class="st0" cx="213.1" cy="233.7" r="1.8"/>
<circle class="st0" cx="230.1" cy="215.7" r="2.9"/>
<circle class="st0" cx="234.3" cy="210.7" r="2.3"/>
<circle class="st0" cx="177.7" cy="182.6" r="1.8"/>
<circle class="st0" cx="166.5" cy="198" r="1.4"/>
<circle class="st0" cx="208.2" cy="202.6" r="3.7"/>
<circle class="st0" cx="200.8" cy="242.2" r="1.7"/>
<circle class="st0" cx="187.2" cy="178.6" r="7.9"/>
<circle class="st0" cx="179.9" cy="167.1" r="5.3"/>
<circle class="st0" cx="166.1" cy="168.5" r="6.5"/>
<circle class="st0" cx="190.9" cy="199.5" r="3.1"/>
<circle class="st0" cx="221.6" cy="178.2" r="1.5"/>
<circle class="st0" cx="208.8" cy="180.1" r="1.5"/>
<circle class="st0" cx="163.9" cy="193.9" r="2.2"/>
<circle class="st0" cx="177.4" cy="133.6" r="2.2"/>
<circle class="st0" cx="234.8" cy="174.8" r="3.2"/>
<circle class="st0" cx="259.7" cy="152.5" r="2.3"/>
<circle class="st0" cx="246.4" cy="143.9" r="2"/>
<circle class="st0" cx="251.7" cy="143.3" r="2"/>
<circle class="st0" cx="214.5" cy="146.3" r="3.5"/>
<circle class="st0" cx="241.3" cy="153.9" r="2.5"/>
<circle class="st0" cx="252.7" cy="127.9" r="1.7"/>
<circle class="st0" cx="248.1" cy="91.3" r="2"/>
<circle class="st0" cx="249.4" cy="84.3" r="4.2"/>
<circle class="st0" cx="207.2" cy="165.5" r="1.4"/>
<circle class="st0" cx="220.4" cy="150.6" r="2.1"/>
<circle class="st0" cx="241.8" cy="141.6" r="2.4"/>
<circle class="st0" cx="210.2" cy="193.9" r="3.9"/>
<circle class="st0" cx="209.8" cy="185.8" r="3.6"/>
<circle class="st0" cx="202.5" cy="180.9" r="3.3"/>
<circle class="st0" cx="203.4" cy="161.4" r="3.8"/>
<circle class="st0" cx="192.8" cy="191" r="3.6"/>
<circle class="st0" cx="197.5" cy="178.2" r="1.9"/>
<circle class="st0" cx="216" cy="200.4" r="3.1"/>
<circle class="st0" cx="229.1" cy="193.2" r="3"/>
<circle class="st0" cx="244.6" cy="194.6" r="3"/>
<circle class="st0" cx="248.7" cy="178.3" r="6.3"/>
<ellipse class="st0" cx="172" cy="179.5" rx="2.7" ry="2.9"/>
<circle class="st0" cx="247.6" cy="188.4" r="3.2"/>
<ellipse class="st0" cx="176" cy="140.5" rx="3.6" ry="3.6"/>
<ellipse class="st0" cx="156.3" cy="173" rx="2.7" ry="2.9"/>
<circle class="st0" cx="175.9" cy="174.3" r="2.1"/>
<circle class="st0" cx="241.6" cy="172.3" r="2.6"/>
<circle class="st0" cx="240.3" cy="177" r="1.3"/>
<circle class="st0" cx="236.3" cy="168.9" r="2.3"/>
<circle class="st0" cx="205" cy="235.4" r="5.1"/>
<circle class="st0" cx="180.1" cy="208.6" r="2"/>
<circle class="st0" cx="195.3" cy="215.9" r="5.4"/>
<circle class="st0" cx="226.4" cy="207.5" r="4.1"/>
<circle class="st0" cx="223.7" cy="198.8" r="4.2"/>
<circle class="st0" cx="235.8" cy="201" r="6.8"/>
<circle class="st0" cx="228.4" cy="178.4" r="3.8"/>
<circle class="st0" cx="254.4" cy="169.8" r="3.5"/>
<circle class="st0" cx="243" cy="135.2" r="2.7"/>
<circle class="st0" cx="259.4" cy="145.9" r="3.3"/>
<circle class="st0" cx="237.8" cy="119.5" r="2.3"/>
<circle class="st0" cx="236.5" cy="95.1" r="1.7"/>
<circle class="st0" cx="252.7" cy="122.2" r="2"/>
<circle class="st0" cx="243.7" cy="148.3" r="1.7"/>
<circle class="st0" cx="217.3" cy="208" r="3.4"/>
<circle class="st0" cx="211" cy="227.2" r="4.2"/>
<circle class="st0" cx="205.2" cy="43.9" r="2"/>
<circle class="st0" cx="210.5" cy="30.1" r="1.5"/>
<circle class="st0" cx="196.6" cy="38.4" r="1.5"/>
<circle class="st0" cx="203.9" cy="26.6" r="2.3"/>
<circle class="st0" cx="197.7" cy="22.7" r="2"/>
<circle class="st0" cx="198.4" cy="27.9" r="2.6"/>
<circle class="st0" cx="199.6" cy="58.5" r="1.7"/>
<circle class="st0" cx="158.3" cy="19.9" r="1.8"/>
<circle class="st0" cx="207.9" cy="58.5" r="1.8"/>
<circle class="st0" cx="168.2" cy="60.8" r="2.8"/>
<circle class="st0" cx="125.6" cy="57.7" r="3.6"/>
<circle class="st0" cx="127.4" cy="50.5" r="2.1"/>
<circle class="st0" cx="127.9" cy="43.1" r="3.6"/>
<circle class="st0" cx="114.8" cy="61.5" r="6.8"/>
<circle class="st0" cx="102.3" cy="38.8" r="3.1"/>
<circle class="st0" cx="108.7" cy="18" r="6"/>
<circle class="st0" cx="101.3" cy="60.2" r="5.4"/>
<circle class="st0" cx="87.4" cy="63.3" r="4"/>
<circle class="st0" cx="73.4" cy="78.3" r="2.8"/>
<circle class="st0" cx="47.1" cy="73.2" r="4.3"/>
<circle class="st0" cx="87.4" cy="71.4" r="3.2"/>
<circle class="st0" cx="76.6" cy="67.1" r="7"/>
<circle class="st0" cx="92.7" cy="57" r="2.7"/>
<circle class="st0" cx="130.3" cy="73.1" r="1.9"/>
<circle class="st0" cx="146.8" cy="87.9" r="1.5"/>
<circle class="st0" cx="118.6" cy="92.2" r="1.8"/>
<circle class="st0" cx="123.6" cy="67" r="2.3"/>
<circle class="st0" cx="159.9" cy="111.5" r="3.1"/>
<circle class="st0" cx="88.7" cy="104.5" r="3.1"/>
<circle class="st0" cx="71.6" cy="88.7" r="3.2"/>
<circle class="st0" cx="117.2" cy="35.4" r="5.1"/>
<circle class="st0" cx="55.2" cy="110.5" r="2"/>
<circle class="st0" cx="48.8" cy="94.3" r="1.7"/>
<circle class="st0" cx="58.4" cy="92.3" r="2.3"/>
<circle class="st0" cx="59.8" cy="105.6" r="3.7"/>
<circle class="st0" cx="46.4" cy="38.3" r="1.6"/>
<circle class="st0" cx="25.5" cy="83.7" r="1.7"/>
<circle class="st0" cx="36.7" cy="85.5" r="1.9"/>
<circle class="st0" cx="32.3" cy="102.2" r="1.9"/>
<circle class="st0" cx="27.8" cy="101.6" r="1.9"/>
<circle class="st0" cx="39.4" cy="74.8" r="2.5"/>
<circle class="st0" cx="61.9" cy="85.6" r="4.8"/>
<circle class="st0" cx="153.7" cy="90.7" r="5.3"/>
<circle class="st0" cx="138.3" cy="90.9" r="6.7"/>
<circle class="st0" cx="145.9" cy="79.2" r="6.7"/>
<circle class="st0" cx="53.6" cy="79.5" r="3.9"/>
<circle class="st0" cx="120" cy="100.5" r="4.6"/>
<circle class="st0" cx="126.3" cy="89.6" r="4.5"/>
<circle class="st0" cx="94" cy="64.8" r="1.6"/>
<circle class="st0" cx="54.3" cy="73.1" r="1.6"/>
<circle class="st0" cx="44.5" cy="65" r="3.1"/>
<circle class="st0" cx="73.5" cy="129.8" r="3.2"/>
<circle class="st0" cx="68.4" cy="134.4" r="2.9"/>
<circle class="st0" cx="54.7" cy="98.5" r="3.8"/>
<circle class="st0" cx="99.5" cy="145.7" r="2.3"/>
<circle class="st0" cx="98.3" cy="139.2" r="3.6"/>
<circle class="st0" cx="104.4" cy="121" r="1.4"/>
<circle class="st0" cx="101.2" cy="134.2" r="1.4"/>
<circle class="st0" cx="66.6" cy="150.1" r="3"/>
<circle class="st0" cx="58.6" cy="154.7" r="3.9"/>
<circle class="st0" cx="27" cy="119.3" r="3"/>
<circle class="st0" cx="22.1" cy="156.2" r="2.2"/>
<circle class="st0" cx="24.3" cy="163.8" r="2.1"/>
<circle class="st0" cx="133.5" cy="79.8" r="3.9"/>
<circle class="st0" cx="110.4" cy="74" r="4.4"/>
<circle class="st0" cx="32.9" cy="125.5" r="2.8"/>
<circle class="st0" cx="38.7" cy="120" r="3.2"/>
<circle class="st0" cx="39" cy="129.4" r="3.2"/>
<circle class="st0" cx="90.9" cy="76.7" r="2"/>
<circle class="st0" cx="32.2" cy="133.3" r="4"/>
<circle class="st0" cx="33" cy="119.9" r="1.9"/>
<circle class="st0" cx="4.8" cy="129.3" r="1.9"/>
<circle class="st0" cx="6.8" cy="112.5" r="2.2"/>
<circle class="st0" cx="6.8" cy="119.5" r="2.9"/>
<circle class="st0" cx="8.8" cy="106.1" r="3.1"/>
<circle class="st0" cx="11.5" cy="93.8" r="2.4"/>
<circle class="st0" cx="37.4" cy="100.7" r="3"/>
<circle class="st0" cx="52.8" cy="105.7" r="2.2"/>
<circle class="st0" cx="78.6" cy="94.4" r="4.6"/>
<circle class="st0" cx="20.7" cy="76.9" r="4.4"/>
<circle class="st0" cx="27" cy="73.6" r="1.8"/>
<circle class="st0" cx="25.7" cy="62.7" r="1.6"/>
<circle class="st0" cx="32.8" cy="52.5" r="1.4"/>
<circle class="st0" cx="23.6" cy="68.7" r="2.9"/>
<circle class="st0" cx="43.2" cy="81.6" r="4.3"/>
<circle class="st0" cx="69.3" cy="82.6" r="2.1"/>
<circle class="st0" cx="31.9" cy="79.3" r="4.6"/>
<circle class="st0" cx="42.1" cy="90.8" r="4.2"/>
<circle class="st0" cx="129.5" cy="99.7" r="3.6"/>
<circle class="st0" cx="51.3" cy="87.8" r="3.3"/>
<circle class="st0" cx="85" cy="164.5" r="5"/>
<circle class="st0" cx="168.6" cy="143.1" r="1.4"/>
<circle class="st0" cx="165.1" cy="158.9" r="2.1"/>
<circle class="st0" cx="112.5" cy="96.2" r="2.3"/>
<circle class="st0" cx="161.6" cy="105" r="1.5"/>
<circle class="st0" cx="165.7" cy="109.4" r="1.8"/>
<circle class="st0" cx="167.2" cy="127.1" r="2.1"/>
<circle class="st0" cx="192.8" cy="153" r="1.3"/>
<circle class="st0" cx="231.4" cy="151.2" r="1.4"/>
<circle class="st0" cx="229.8" cy="112.1" r="1"/>
<circle class="st0" cx="230.6" cy="97.7" r="2.1"/>
<circle class="st0" cx="254.4" cy="98.4" r="4.1"/>
<circle class="st0" cx="226.8" cy="75.4" r="3.5"/>
<circle class="st0" cx="243.6" cy="67.6" r="1.9"/>
<circle class="st0" cx="236.6" cy="57" r="1.7"/>
<circle class="st0" cx="249.1" cy="78.2" r="1.6"/>
<circle class="st0" cx="232.1" cy="77.8" r="1.3"/>
<circle class="st0" cx="218.2" cy="60.1" r="1.5"/>
<circle class="st0" cx="224.3" cy="50.2" r="1.5"/>
<circle class="st0" cx="228.4" cy="47" r="1.5"/>
<circle class="st0" cx="253.7" cy="91.2" r="2.3"/>
<circle class="st0" cx="204" cy="129.8" r="3.2"/>
<circle class="st0" cx="196.4" cy="123.3" r="1.1"/>
<circle class="st0" cx="164.9" cy="123.8" r="1.1"/>
<circle class="st0" cx="209.5" cy="131.3" r="1.3"/>
<circle class="st0" cx="205.7" cy="118.9" r="1.1"/>
<circle class="st0" cx="173.4" cy="161.5" r="2.1"/>
<circle class="st0" cx="179.3" cy="158.9" r="2.2"/>
<circle class="st0" cx="212.4" cy="163.1" r="3.9"/>
<circle class="st0" cx="236.8" cy="147.3" r="4.7"/>
<circle class="st0" cx="168.9" cy="139.6" r="1.7"/>
<circle class="st0" cx="166" cy="117.3" r="4.8"/>
<circle class="st0" cx="137" cy="100.3" r="2.3"/>
<circle class="st0" cx="175.7" cy="124.6" r="6.3"/>
<circle class="st0" cx="178.4" cy="95.2" r="2"/>
<circle class="st0" cx="185" cy="96.1" r="2"/>
<circle class="st0" cx="172.1" cy="89.3" r="4"/>
<circle class="st0" cx="181.6" cy="101.3" r="3.3"/>
<circle class="st0" cx="163.7" cy="91.6" r="3.4"/>
<circle class="st0" cx="165.2" cy="77.3" r="3.4"/>
<circle class="st0" cx="183.4" cy="80.5" r="1.7"/>
<circle class="st0" cx="190" cy="101.4" r="3.2"/>
<circle class="st0" cx="160.5" cy="98.6" r="2.2"/>
<circle class="st0" cx="181.9" cy="88.2" r="5"/>
<circle class="st0" cx="175" cy="80.1" r="5"/>
<circle class="st0" cx="157.9" cy="81.1" r="3.8"/>
<circle class="st0" cx="143.4" cy="101.3" r="2.5"/>
<circle class="st0" cx="103.8" cy="79.8" r="2.3"/>
<circle class="st0" cx="106.8" cy="67.4" r="2.1"/>
<circle class="st0" cx="122" cy="76.9" r="6.1"/>
<circle class="st0" cx="110.6" cy="86.7" r="6.5"/>
<circle class="st0" cx="85.8" cy="180.7" r="1.8"/>
<ellipse class="st0" cx="58.2" cy="180.1" rx="1.5" ry="1.6"/>
<circle class="st0" cx="110.7" cy="171.7" r="1.9"/>
<circle class="st0" cx="120.4" cy="177.7" r="1.6"/>
<circle class="st0" cx="134.9" cy="181.1" r="1.9"/>
<circle class="st0" cx="104.3" cy="98.9" r="4.8"/>
<circle class="st0" cx="213.9" cy="153.5" r="2.7"/>
<circle class="st0" cx="51" cy="58.6" r="2.8"/>
<circle class="st0" cx="141.6" cy="69.3" r="2.4"/>
<circle class="st0" cx="168.4" cy="72.1" r="2.1"/>
<circle class="st0" cx="165.4" cy="84.4" r="2.9"/>
<circle class="st0" cx="186.7" cy="76" r="1.8"/>
<circle class="st0" cx="203.3" cy="72.5" r="2.2"/>
<circle class="st0" cx="137.6" cy="73.1" r="2.1"/>
<circle class="st0" cx="146.7" cy="95.4" r="2.1"/>
<circle class="st0" cx="160.8" cy="68" r="5.3"/>
<circle class="st0" cx="185.9" cy="69.3" r="3.8"/>
<ellipse class="st0" cx="211.5" cy="100.4" rx="4.1" ry="4.2"/>
<circle class="st0" cx="205.3" cy="102.7" r="1.7"/>
<circle class="st0" cx="202" cy="122.5" r="3.5"/>
<circle class="st0" cx="175.5" cy="66.8" r="5.9"/>
<circle class="st0" cx="195.1" cy="72" r="4.9"/>
<circle class="st0" cx="205.1" cy="91.6" r="5.9"/>
<circle class="st0" cx="192.4" cy="92" r="5.6"/>
<circle class="st0" cx="198.7" cy="101.8" r="4.6"/>
<circle class="st0" cx="148.1" cy="146.5" r="5.6"/>
<circle class="st0" cx="146.3" cy="123.6" r="4.1"/>
<circle class="st0" cx="119.4" cy="132.5" r="4.4"/>
<circle class="st0" cx="130.2" cy="149.4" r="4.1"/>
<circle class="st0" cx="120.8" cy="155.3" r="3.6"/>
<circle class="st0" cx="134.1" cy="137.6" r="6.9"/>
<circle class="st0" cx="119.8" cy="143" r="5.9"/>
<circle class="st0" cx="126.2" cy="131.9" r="1.8"/>
<circle class="st0" cx="125.1" cy="136.6" r="1.7"/>
<circle class="st0" cx="116.8" cy="151.1" r="1.7"/>
<circle class="st0" cx="129.4" cy="116.7" r="1.6"/>
<circle class="st0" cx="143" cy="157.5" r="5.7"/>
<circle class="st0" cx="136.6" cy="162.7" r="2"/>
<circle class="st0" cx="138.6" cy="148" r="2.8"/>
<circle class="st0" cx="150.7" cy="129.9" r="2.3"/>
<circle class="st0" cx="134.4" cy="118" r="2.8"/>
<circle class="st0" cx="136.6" cy="125.9" r="4"/>
<circle class="st0" cx="150.7" cy="136.7" r="3.7"/>
<circle class="st0" cx="135" cy="155.1" r="1.8"/>
<circle class="st0" cx="141" cy="118.6" r="2.3"/>
<circle class="st0" cx="144.1" cy="138.4" r="2.1"/>
<circle class="st0" cx="123.4" cy="150.3" r="1.4"/>
<circle class="st0" cx="143.9" cy="131.7" r="3.5"/>
<circle class="st0" cx="125.9" cy="123.8" r="5.7"/>
<circle class="st0" cx="129.2" cy="159.6" r="4.8"/>
<circle class="st0" cx="143.9" cy="181.4" r="3.6"/>
<circle class="st0" cx="137.2" cy="188.4" r="5.1"/>
<circle class="st0" cx="117.6" cy="190.5" r="4.5"/>
<circle class="st0" cx="112" cy="180.5" r="6.3"/>
<ellipse class="st0" cx="126.4" cy="182.7" rx="5.2" ry="5.2"/>
<circle class="st0" cx="161.9" cy="183" r="6.5"/>
<circle class="st0" cx="81.4" cy="156" r="3.3"/>
<circle class="st0" cx="79.6" cy="184.5" r="4.2"/>
<circle class="st0" cx="91.4" cy="185.5" r="4.4"/>
<circle class="st0" cx="85.1" cy="190.7" r="2.5"/>
<circle class="st0" cx="101.8" cy="188.6" r="4.8"/>
<circle class="st0" cx="109.8" cy="190.9" r="2.4"/>
<circle class="st0" cx="145" cy="188" r="1.6"/>
<circle class="st0" cx="151.6" cy="186" r="3.3"/>
<circle class="st0" cx="106.3" cy="166.8" r="2.3"/>
<circle class="st0" cx="127.7" cy="192.3" r="3.4"/>
<circle class="st0" cx="214" cy="180.3" r="2.2"/>
<circle class="st0" cx="154.8" cy="74.7" r="2.2"/>
<circle class="st0" cx="181.4" cy="74.9" r="1.7"/>
<circle class="st0" cx="199" cy="81.7" r="4.6"/>
<circle class="st0" cx="189.7" cy="82.3" r="3.4"/>
<circle class="st0" cx="193.7" cy="107" r="2.1"/>
<circle class="st0" cx="209.1" cy="157.2" r="2.3"/>
<circle class="st0" cx="17" cy="189.2" r="1.3"/>
<circle class="st0" cx="24.1" cy="177" r="1.3"/>
<circle class="st0" cx="35.7" cy="181.3" r="2.5"/>
<circle class="st0" cx="45.7" cy="186.2" r="1.6"/>
<circle class="st0" cx="27.6" cy="203.5" r="3.3"/>
<circle class="st0" cx="33.2" cy="210" r="3.9"/>
<circle class="st0" cx="65.4" cy="216.2" r="4.6"/>
<circle class="st0" cx="59.7" cy="222" r="1.5"/>
<circle class="st0" cx="105.1" cy="258.7" r="1.7"/>
<circle class="st0" cx="73.8" cy="123.2" r="1.7"/>
<circle class="st0" cx="70.9" cy="117.8" r="2.7"/>
<circle class="st0" cx="9" cy="99.8" r="1.6"/>
<circle class="st0" cx="191" cy="17.8" r="1.2"/>
<circle class="st0" cx="181" cy="14" r="1.8"/>
<circle class="st0" cx="57.9" cy="29.4" r="2"/>
<circle class="st0" cx="232.7" cy="59.3" r="1.2"/>
</svg>
